<?xml version="1.0" encoding="iso-8859-1"?>
<!-- Generator: Adobe Illustrator 19.0.0, SVG Export Plug-In . SVG Version: 6.00 Build 0)  -->
<svg xmlns="http://www.w3.org/2000/svg" xmlns:xlink="http://www.w3.org/1999/xlink" version="1.1" id="Capa_1" x="0px" y="0px" viewBox="0 0 512 512" style="enable-background:new 0 0 512 512;" xml:space="preserve" width="512px" height="512px">
<g>
	<g>
		<path d="M380.728,295.895c-2.236,0-4.455,0.077-6.658,0.211c-0.343-52.979-43.543-95.976-96.602-95.976h-1.415    c23.124-21.061,37.66-51.397,37.66-85.065C313.714,51.618,262.095,0,198.649,0S83.584,51.618,83.584,115.065    c0,33.668,14.536,64.004,37.66,85.065h-1.415c-53.271,0-96.61,43.339-96.61,96.61v148.57h257.693    c16.269,39.115,54.881,66.69,99.816,66.69c59.58,0,108.053-48.472,108.053-108.053    C488.781,344.367,440.308,295.895,380.728,295.895z M113.584,115.065c0-46.905,38.16-85.065,85.065-85.065    c46.905,0,85.065,38.16,85.065,85.065c0,46.898-38.15,85.054-85.046,85.065h-0.038    C151.734,200.119,113.584,161.964,113.584,115.065z M223.379,230.13l-24.731,36.252l-24.731-36.252h24.693    c0.013,0,0.026,0.001,0.038,0.001c0.013,0,0.026-0.001,0.038-0.001H223.379z M273.272,415.31H53.219V296.74    c0-36.729,29.881-66.61,66.61-66.61h17.774l61.046,89.488l61.046-89.488h17.773c36.73,0,66.61,29.881,66.61,66.61v5.558    c-41.595,15.043-71.403,54.929-71.403,101.649C272.675,407.784,272.88,411.575,273.272,415.31z M380.728,482    c-43.038,0-78.053-35.014-78.053-78.053s35.015-78.053,78.053-78.053c43.038,0,78.053,35.014,78.053,78.053    S423.766,482,380.728,482z" fill="#333333"/>
	</g>
</g>
<g>
	<g>
		<rect x="335.45" y="388.95" width="92.56" height="30" fill="#333333"/>
	</g>
</g>
<g>
</g>
<g>
</g>
<g>
</g>
<g>
</g>
<g>
</g>
<g>
</g>
<g>
</g>
<g>
</g>
<g>
</g>
<g>
</g>
<g>
</g>
<g>
</g>
<g>
</g>
<g>
</g>
<g>
</g>
</svg>
